<svg width="429" height="695" viewBox="0 0 429 695" fill="none" xmlns="http://www.w3.org/2000/svg">
<g style="mix-blend-mode:screen" opacity="0.29">
<path d="M416.722 44.6144L436.038 63.9309L631.016 258.909L650.33 278.223V250.907V169.115C650.33 100.47 594.483 44.6199 525.838 44.6171L444.04 44.6144H416.722ZM444.04 55.9292L525.838 55.932C588.344 55.9343 639.015 106.606 639.015 169.115V250.907L444.04 55.9292Z" fill="white"/>
<path d="M650.333 416.782L631.019 436.095L436.033 631.081L416.716 650.398H444.032L525.833 650.401C559.088 650.401 590.353 637.452 613.868 613.936C637.384 590.423 650.333 559.158 650.333 525.903V444.097V416.782ZM639.018 444.097V525.903C639.018 588.414 588.343 639.089 525.833 639.086L444.032 639.083L639.018 444.097Z" fill="white"/>
<path d="M169.036 644.731C103.51 644.731 50.2012 591.422 50.2012 525.894V430.442L264.493 644.734L169.036 644.731Z" fill="#45B649"/>
<path d="M44.5415 416.781V444.097V525.892C44.5415 594.537 100.389 650.384 169.033 650.387L250.834 650.39L278.15 650.392L258.833 631.076L63.8581 436.098L44.5415 416.781ZM55.8564 444.097L250.834 639.075L169.036 639.072C106.528 639.072 55.8564 588.398 55.8564 525.892V444.097Z" fill="white"/>
<path d="M50.1987 169.103C50.1987 137.36 62.562 107.516 85.0079 85.0698C107.454 62.6238 137.295 50.2634 169.036 50.2634C169.039 50.2634 264.501 50.2661 264.501 50.2661L50.1987 264.566V169.103Z" fill="#45B649"/>
<path d="M169.043 44.6069C135.788 44.6069 104.523 57.5558 81.0074 81.0686C57.4914 104.585 44.543 135.849 44.543 169.104V250.911V278.226L63.8568 258.909L258.843 63.9263L278.159 44.6097H250.843L169.043 44.6069ZM169.043 55.9218L250.843 55.9246L55.8574 250.911V169.104C55.8574 106.594 106.532 55.9191 169.043 55.9218Z" fill="white"/>
<path d="M347.437 689.341C312.398 689.341 279.46 675.698 254.685 650.921L44.0129 440.254C-7.12995 389.108 -7.12995 305.892 44.0129 254.749L254.685 44.0765C279.46 19.3019 312.398 5.65857 347.437 5.65857C382.475 5.65857 415.416 19.3019 440.188 44.0765L650.86 254.749C675.638 279.524 689.281 312.465 689.281 347.502C689.281 382.538 675.635 415.479 650.857 440.254L440.188 650.921C415.416 675.698 382.475 689.341 347.437 689.341Z" fill="#FDD008"/>
<path d="M347.448 0H347.435C310.885 0.00274658 276.523 14.2365 250.684 40.0755L40.0117 250.748C-13.3372 304.097 -13.3372 390.903 40.0117 444.252L250.684 654.925C276.528 680.769 310.888 695 347.438 695C383.985 695 418.347 680.769 444.191 654.925L654.861 444.254C708.21 390.903 708.21 304.097 654.861 250.748L444.191 40.0755C418.347 14.2341 383.99 0 347.448 0ZM347.438 11.3149C379.562 11.3121 411.678 23.5663 436.189 48.0771L646.859 258.747C695.876 307.764 695.876 387.236 646.859 436.253L436.189 646.923C411.684 671.429 379.554 683.685 347.438 683.685C315.311 683.685 283.194 671.434 258.684 646.923L48.0135 436.253C-1.00308 387.236 -1.00308 307.764 48.0135 258.747L258.684 48.0771C283.189 23.5714 315.319 11.3172 347.438 11.3149Z" fill="white"/>
<path d="M517.598 333.187C515.977 326.843 514.021 320.523 511.709 314.245C509.394 307.968 506.778 301.89 503.896 296.012C461.399 209.366 359.393 167.172 266.863 201.276C174.333 235.377 124.108 333.679 148.004 427.178C149.625 433.522 151.581 439.841 153.893 446.119C156.208 452.397 158.824 458.475 161.706 464.353C204.203 550.999 306.209 593.193 398.739 559.089C491.269 524.988 541.494 426.686 517.598 333.187Z" fill="#FAA71B"/>
<path d="M413.375 526.41C505.905 492.308 556.133 394.007 532.234 300.508L176.342 431.674C218.839 518.317 320.845 560.511 413.375 526.41Z" fill="#415AA8"/>
<path d="M281.499 168.595C188.969 202.697 138.742 300.998 162.641 394.497L518.532 263.331C476.035 176.688 374.029 134.494 281.499 168.595Z" fill="#415AA8"/>
<path d="M518.532 263.333L162.64 394.499C164.261 400.843 166.217 407.163 168.529 413.441C170.844 419.718 173.46 425.796 176.342 431.674L532.233 300.508C530.613 294.167 528.657 287.844 526.344 281.567C524.029 275.29 521.413 269.212 518.532 263.333Z" fill="#4AB2E5"/>
</g>
</svg>
