<svg width="115" height="116" viewBox="0 0 115 116" fill="none" xmlns="http://www.w3.org/2000/svg">
<path d="M71.2288 8.32001L87.0271 8.32047C97.8718 8.32047 106.694 17.1436 106.694 27.9883V43.7856L71.2288 8.32001Z" fill="#45B649"/>
<path d="M68.9683 7.38349L72.1652 10.5804L104.434 42.8497L107.631 46.0461V41.5254V27.9885C107.631 16.6277 98.388 7.38441 87.0273 7.38395L73.4895 7.38349H68.9683ZM73.4895 9.25613L87.0273 9.25658C97.372 9.25697 105.758 17.6432 105.758 27.9885V41.5254L73.4895 9.25613Z" fill="white"/>
<path d="M71.2275 106.705L106.695 71.2383L106.695 87.0376C106.695 92.2912 104.649 97.2304 100.934 100.945C97.2196 104.66 92.2804 106.706 87.0272 106.706L71.2275 106.705Z" fill="#45B649"/>
<path d="M107.631 68.9779L104.435 72.1744L72.1642 104.445L68.9673 107.642H73.4881L87.0263 107.642C92.5301 107.642 97.7044 105.499 101.596 101.607C105.488 97.7159 107.631 92.5416 107.631 87.0378V73.4987V68.9779ZM105.759 73.4987V87.0378C105.759 97.3834 97.3719 105.77 87.0263 105.77L73.4881 105.769L105.759 73.4987Z" fill="white"/>
<path d="M27.9757 106.704C17.1311 106.704 8.30835 97.8809 8.30835 87.0359V71.2384L43.774 106.704L27.9757 106.704Z" fill="#45B649"/>
<path d="M7.37183 68.9778V73.4986V87.0359C7.37183 98.3967 16.6147 107.64 27.9755 107.64L41.5136 107.64L46.0345 107.641L42.8375 104.444L10.5688 72.1748L7.37183 68.9778ZM9.24446 73.4986L41.5136 105.768L27.9759 105.767C17.6307 105.767 9.24446 97.3807 9.24446 87.0359V73.4986Z" fill="white"/>
<path d="M8.30786 27.9864C8.30786 22.7328 10.354 17.7936 14.0689 14.0787C17.7837 10.3638 22.7224 8.31817 27.9756 8.31817C27.9761 8.31817 43.7753 8.31863 43.7753 8.31863L8.30786 43.7856V27.9864Z" fill="#45B649"/>
<path d="M27.9768 7.38198C22.473 7.38198 17.2986 9.52504 13.4068 13.4165C9.51481 17.3084 7.37183 22.4828 7.37183 27.9865V41.5256V46.0464L10.5683 42.8495L42.8388 10.5794L46.0358 7.38244H41.5149L27.9768 7.38198ZM27.9768 9.25462L41.5149 9.25507L9.24439 41.5256V27.9865C9.24439 17.6409 17.6311 9.25416 27.9768 9.25462Z" fill="white"/>
<path d="M57.5014 114.087C51.7025 114.087 46.2511 111.829 42.1509 107.729L7.28421 72.8629C-1.18002 64.3982 -1.18002 50.6258 7.28421 42.1616L42.1509 7.29486C46.2511 3.19463 51.7025 0.936623 57.5014 0.936623C63.3003 0.936623 68.7521 3.19463 72.8519 7.29486L107.719 42.1616C111.819 46.2618 114.077 51.7136 114.077 57.5124C114.077 63.3109 111.819 68.7627 107.718 72.8629L72.8519 107.729C68.7521 111.829 63.3003 114.087 57.5014 114.087Z" fill="#FDD008"/>
<path d="M57.5033 0.00012207H57.5011C51.4521 0.000579834 45.7651 2.35628 41.4887 6.63269L6.62202 41.4994C-2.20734 50.3288 -2.20734 64.6953 6.62202 73.5247L41.4887 108.391C45.766 112.669 51.4526 115.024 57.5016 115.024C63.5502 115.024 69.2372 112.669 73.5145 108.391L108.381 73.525C117.21 64.6953 117.21 50.3288 108.381 41.4994L73.5145 6.63269C69.2372 2.3559 63.551 0.00012207 57.5033 0.00012207ZM57.5016 1.87276C62.8182 1.8723 68.1335 3.9004 72.1901 7.95698L107.056 42.8233C115.169 50.9356 115.169 64.0884 107.056 72.2007L72.1901 107.067C68.1344 111.123 62.8169 113.151 57.5016 113.151C52.1845 113.151 46.8692 111.124 42.8126 107.067L7.94632 72.2007C-0.166011 64.0884 -0.166011 50.9356 7.94632 42.8233L42.8126 7.95698C46.8684 3.90124 52.1858 1.87314 57.5016 1.87276Z" fill="white"/>
<path d="M85.6634 55.1428C85.3952 54.0929 85.0715 53.0469 84.6887 52.008C84.3056 50.9691 83.8727 49.9632 83.3957 48.9903C76.3623 34.6502 59.4802 27.6671 44.1662 33.3114C28.8524 38.9552 20.5401 55.2243 24.4949 70.6985C24.7631 71.7484 25.0868 72.7944 25.4695 73.8333C25.8527 74.8723 26.2856 75.8782 26.7627 76.851C33.796 91.1911 50.6781 98.1743 65.9921 92.53C81.3059 86.8862 89.6182 70.6171 85.6634 55.1428Z" fill="#FAA71B"/>
<path d="M68.4145 87.1216C83.7283 81.4778 92.0411 65.2086 88.0858 49.7344L29.1851 71.4426C36.2184 85.7823 53.1006 92.7654 68.4145 87.1216Z" fill="#415AA8"/>
<path d="M46.5888 27.9026C31.2749 33.5464 22.9621 49.8156 26.9175 65.2898L85.8182 43.5816C78.7849 29.2419 61.9026 22.2588 46.5888 27.9026Z" fill="#415AA8"/>
<path d="M85.8179 43.5817L26.9172 65.2899C27.1854 66.3399 27.5091 67.3858 27.8918 68.4248C28.275 69.4637 28.7079 70.4695 29.1849 71.4424L88.0856 49.7343C87.8174 48.6847 87.4937 47.6383 87.111 46.5994C86.7278 45.5605 86.2949 44.5546 85.8179 43.5817Z" fill="#4AB2E5"/>
</svg>
