<svg width="175" height="83" viewBox="0 0 175 83" fill="none" xmlns="http://www.w3.org/2000/svg">
<path d="M51.3477 5.99768L62.7364 5.99801C70.5541 5.99801 76.9142 12.3584 76.9142 20.1762V31.5642L51.3477 5.99768Z" fill="#45B649"/>
<path d="M49.7178 5.32241L52.0224 7.62702L75.2847 30.8893L77.589 33.1936V29.9347V20.1762C77.589 11.9864 70.926 5.32307 62.7362 5.32274L52.977 5.32241H49.7178ZM52.977 6.67236L62.7362 6.67269C70.1935 6.67296 76.239 12.7185 76.239 20.1762V29.9347L52.977 6.67236Z" fill="white"/>
<path d="M51.3467 76.9218L76.9142 51.3543L76.9145 62.7436C76.9145 66.5309 75.4398 70.0914 72.7615 72.7694C70.0839 75.4471 66.5233 76.9221 62.7364 76.9221L51.3467 76.9218Z" fill="#45B649"/>
<path d="M77.5899 49.7247L75.2856 52.029L52.0224 75.2922L49.7178 77.5968H52.9767L62.7362 77.5972C66.7038 77.5972 70.4339 76.0523 73.2394 73.2467C76.045 70.4414 77.5899 66.7113 77.5899 62.7437V52.9836V49.7247ZM76.24 52.9836V62.7437C76.24 70.2017 70.1941 76.2476 62.7362 76.2472L52.9767 76.2469L76.24 52.9836Z" fill="white"/>
<path d="M20.1671 76.9206C12.3494 76.9206 5.98926 70.5604 5.98926 62.7424V51.3543L31.5558 76.9209L20.1671 76.9206Z" fill="#45B649"/>
<path d="M5.31445 49.7247V52.9837V62.7425C5.31445 70.9322 11.9775 77.5953 20.1672 77.5956L29.9267 77.5959L33.1856 77.5962L30.881 75.2916L7.61906 52.0293L5.31445 49.7247ZM6.6644 52.9837L29.9267 76.246L20.1676 76.2456C12.7099 76.2456 6.6644 70.1998 6.6644 62.7425V52.9837Z" fill="white"/>
<path d="M5.98926 20.1748C5.98926 16.3876 7.46428 12.827 10.1422 10.149C12.8202 7.47105 16.3804 5.99636 20.1674 5.99636C20.1677 5.99636 31.5571 5.99669 31.5571 5.99669L5.98926 31.5642V20.1748Z" fill="#45B649"/>
<path d="M20.1682 5.32138C16.2006 5.32138 12.4705 6.86628 9.66492 9.67152C6.85929 12.4772 5.31445 16.2073 5.31445 20.1748V29.9349V33.1938L7.61873 30.8892L30.882 7.62633L33.1866 5.32172H29.9276L20.1682 5.32138ZM20.1682 6.67133L29.9276 6.67166L6.66435 29.9349V20.1748C6.66435 12.7168 12.7102 6.671 20.1682 6.67133Z" fill="white"/>
<path d="M41.4517 82.2432C37.2714 82.2432 33.3416 80.6154 30.3859 77.6593L5.25109 52.5252C-0.850623 46.4231 -0.850623 36.4949 5.25109 30.3931L30.3859 5.25838C33.3416 2.3026 37.2714 0.674835 41.4517 0.674835C45.6321 0.674835 49.5622 2.3026 52.5176 5.25838L77.6524 30.3931C80.6085 33.3489 82.2362 37.279 82.2362 41.4593C82.2362 45.6393 80.6082 49.5694 77.6521 52.5252L52.5176 77.6593C49.5622 80.6154 45.6321 82.2432 41.4517 82.2432Z" fill="#FDD008"/>
<path d="M41.4531 -9.91821e-05H41.4515C37.0909 0.000228882 32.9912 1.69841 29.9085 4.7812L4.77369 29.916C-1.59123 36.2809 -1.59123 46.6375 4.77369 53.0024L29.9085 78.1372C32.9918 81.2206 37.0912 82.9185 41.4518 82.9185C45.8122 82.9185 49.9118 81.2206 52.9952 78.1372L78.1296 53.0027C84.4946 46.6375 84.4946 36.2809 78.1296 29.916L52.9952 4.7812C49.9118 1.69814 45.8128 -9.91821e-05 41.4531 -9.91821e-05ZM41.4518 1.34985C45.2845 1.34952 49.1162 2.81154 52.0405 5.73586L77.175 30.8703C83.023 36.7184 83.023 46.2 77.175 52.048L52.0405 77.1825C49.1168 80.1062 45.2835 81.5685 41.4518 81.5685C37.6189 81.5685 33.7872 80.1068 30.8628 77.1825L5.72836 52.048C-0.119674 46.2 -0.119674 36.7184 5.72836 30.8703L30.8628 5.73586C33.7866 2.81214 37.6198 1.35013 41.4518 1.34985Z" fill="white"/>
<path d="M61.7535 39.7513C61.5601 38.9944 61.3268 38.2404 61.0509 37.4915C60.7747 36.7425 60.4626 36.0174 60.1188 35.316C55.0485 24.9785 42.8785 19.9445 31.839 24.0134C20.7995 28.0819 14.8073 39.8101 17.6583 50.9651C17.8516 51.722 18.085 52.476 18.3609 53.225C18.6371 53.9739 18.9492 54.699 19.293 55.4004C24.3632 65.7379 36.5333 70.7719 47.5728 66.7031C58.6123 62.6345 64.6045 50.9064 61.7535 39.7513Z" fill="#FAA71B"/>
<path d="M49.3188 62.8041C60.3583 58.7355 66.3508 47.0074 63.4995 35.8523L21.0391 51.5014C26.1092 61.8386 38.2793 66.8726 49.3188 62.8041Z" fill="#415AA8"/>
<path d="M33.5852 20.1144C22.5457 24.1829 16.5532 35.9111 19.4045 47.0662L61.8649 31.4171C56.7948 21.0799 44.6247 16.0459 33.5852 20.1144Z" fill="#415AA8"/>
<path d="M61.8647 31.417L19.4043 47.066C19.5976 47.8229 19.831 48.5769 20.1069 49.3259C20.3831 50.0748 20.6952 50.7999 21.039 51.5012L63.4994 35.8522C63.3061 35.0957 63.0727 34.3413 62.7969 33.5924C62.5206 32.8434 62.2086 32.1183 61.8647 31.417Z" fill="#4AB2E5"/>
<path d="M102.952 33.8922H98.6396V39.2472C98.6396 39.4448 98.5318 39.5347 98.3521 39.5347H97.4716C97.2739 39.5347 97.184 39.4448 97.184 39.2472V27.2075C97.184 27.0278 97.2739 26.92 97.4716 26.92H103.078C103.258 26.92 103.366 27.0098 103.366 27.1895V27.9622C103.366 28.1599 103.258 28.2497 103.078 28.2497H98.6396V32.5804H102.952C103.132 32.5804 103.24 32.6882 103.24 32.8679V33.6047C103.24 33.8024 103.132 33.8922 102.952 33.8922ZM107.587 34.8805H111.145L109.384 28.4833H109.348L107.587 34.8805ZM108.773 26.92H109.959C110.138 26.92 110.264 27.0278 110.336 27.2255L113.966 39.2292C114.02 39.4448 113.948 39.5347 113.732 39.5347H112.78C112.618 39.5347 112.51 39.4448 112.456 39.2651L111.558 36.2103H107.173L106.275 39.2651C106.203 39.4448 106.113 39.5347 105.969 39.5347H104.999C104.783 39.5347 104.694 39.4448 104.765 39.2292L108.395 27.2255C108.449 27.0278 108.575 26.92 108.773 26.92ZM117.982 33.6766H119.744C120.804 33.6766 121.54 33.4789 121.972 33.0836C122.403 32.6882 122.619 31.9874 122.619 30.9991C122.619 29.9928 122.403 29.274 121.972 28.8787C121.54 28.4833 120.786 28.2677 119.708 28.2677H117.982V33.6766ZM116.814 26.92H119.744C121.271 26.92 122.385 27.2434 123.068 27.8903C123.751 28.5373 124.11 29.5615 124.11 30.9991C124.11 33.2812 123.14 34.575 121.199 34.8805L124.02 39.1753C124.092 39.2831 124.11 39.355 124.074 39.4269C124.038 39.4987 123.966 39.5347 123.859 39.5347H122.834C122.673 39.5347 122.547 39.4628 122.439 39.3011L119.654 35.0243H117.982V39.2472C117.982 39.4448 117.875 39.5347 117.695 39.5347H116.814C116.617 39.5347 116.527 39.4448 116.527 39.2472V27.2075C116.527 27.0278 116.617 26.92 116.814 26.92ZM131.855 35.9587C131.712 35.9587 131.604 35.9048 131.55 35.779L128.531 29.8131V39.2472C128.531 39.4448 128.423 39.5347 128.243 39.5347H127.381C127.183 39.5347 127.093 39.4448 127.093 39.2472V27.2075C127.093 27.0278 127.183 26.92 127.381 26.92H128.261C128.405 26.92 128.513 26.9919 128.585 27.0997L131.855 33.5688L135.126 27.0997C135.162 26.9919 135.27 26.92 135.449 26.92H136.33C136.509 26.92 136.617 27.0278 136.617 27.2075V39.2472C136.617 39.4448 136.509 39.5347 136.33 39.5347H135.449C135.27 39.5347 135.18 39.4448 135.18 39.2472V29.8131L132.143 35.779C132.071 35.9048 131.981 35.9587 131.855 35.9587ZM142.006 34.8805H145.564L143.803 28.4833H143.767L142.006 34.8805ZM143.192 26.92H144.378C144.558 26.92 144.683 27.0278 144.755 27.2255L148.385 39.2292C148.439 39.4448 148.367 39.5347 148.152 39.5347H147.199C147.037 39.5347 146.93 39.4448 146.876 39.2651L145.977 36.2103H141.593L140.694 39.2651C140.622 39.4448 140.532 39.5347 140.389 39.5347H139.418C139.203 39.5347 139.113 39.4448 139.185 39.2292L142.815 27.2255C142.868 27.0278 142.994 26.92 143.192 26.92ZM143.39 25.8238L144.216 24.3324C144.288 24.1886 144.414 24.0988 144.558 24.0988H145.78C145.869 24.0988 145.923 24.1347 145.941 24.2066C145.959 24.2785 145.941 24.3503 145.887 24.4042L144.432 25.8957C144.306 26.0215 144.18 26.0754 144.054 26.0754H143.551C143.479 26.0754 143.426 26.0574 143.39 26.0035C143.354 25.9496 143.354 25.8957 143.39 25.8238ZM155.265 38.3487C155.822 38.3487 156.433 38.2229 157.116 37.9533C157.278 37.8815 157.386 37.9533 157.458 38.169L157.691 38.8698C157.727 39.0135 157.655 39.1214 157.44 39.2112C156.829 39.5347 156.038 39.6964 155.068 39.6964C153.45 39.6964 152.246 39.1753 151.456 38.133C150.665 37.0908 150.27 35.4556 150.27 33.2273C150.27 30.9991 150.647 29.3639 151.438 28.3216C152.228 27.2794 153.414 26.7403 154.996 26.7403C155.93 26.7403 156.703 26.902 157.332 27.2075C157.511 27.2973 157.601 27.4052 157.565 27.5489L157.368 28.2497C157.296 28.4654 157.188 28.5193 157.008 28.4474C156.397 28.2138 155.786 28.088 155.193 28.088C154.007 28.088 153.127 28.5013 152.588 29.292C152.049 30.0826 151.779 31.3944 151.779 33.2273C151.779 35.0602 152.049 36.372 152.606 37.1627C153.145 37.9533 154.043 38.3487 155.265 38.3487ZM160.568 39.2472V27.2075C160.568 27.0278 160.657 26.92 160.855 26.92H161.736C161.933 26.92 162.041 27.0278 162.041 27.2075V39.2472C162.041 39.4448 161.933 39.5347 161.736 39.5347H160.855C160.657 39.5347 160.568 39.4448 160.568 39.2472ZM167.528 34.8805H171.086L169.325 28.4833H169.289L167.528 34.8805ZM168.714 26.92H169.9C170.08 26.92 170.206 27.0278 170.277 27.2255L173.907 39.2292C173.961 39.4448 173.889 39.5347 173.674 39.5347H172.721C172.56 39.5347 172.452 39.4448 172.398 39.2651L171.499 36.2103H167.115L166.216 39.2651C166.144 39.4448 166.055 39.5347 165.911 39.5347H164.94C164.725 39.5347 164.635 39.4448 164.707 39.2292L168.337 27.2255C168.391 27.0278 168.516 26.92 168.714 26.92Z" fill="#ED2024"/>
<path d="M101.379 51.6621H101.828C102.411 51.6621 102.792 51.5275 102.949 51.2584C103.106 50.9893 103.196 50.4061 103.196 49.509C103.196 48.6119 103.106 48.0288 102.949 47.7597C102.792 47.4906 102.411 47.356 101.828 47.356H101.379V51.6621ZM100.662 59.5117H97.9704C97.477 59.5117 97.2527 59.2874 97.2527 58.794V44.3507C97.2527 43.8797 97.477 43.633 97.9704 43.633H101.828C103.891 43.633 105.349 44.0592 106.156 44.8665C106.964 45.6964 107.39 47.2439 107.39 49.509C107.39 51.7518 106.964 53.2993 106.156 54.1067C105.327 54.9365 103.891 55.3402 101.828 55.3402H101.379V58.794C101.379 59.2874 101.133 59.5117 100.662 59.5117ZM113.697 43.4088C114.639 43.4088 115.401 43.5209 116.029 43.7452C116.635 43.9694 117.173 44.3956 117.644 44.9787C118.115 45.5618 118.452 46.3916 118.676 47.4681C118.878 48.5447 118.99 49.9127 118.99 51.5724C118.99 53.232 118.878 54.6001 118.676 55.6766C118.452 56.7531 118.115 57.6054 117.644 58.1885C117.173 58.7716 116.635 59.1753 116.029 59.3996C115.401 59.6239 114.639 59.736 113.697 59.736C112.755 59.736 111.97 59.6239 111.365 59.3996C110.737 59.1753 110.198 58.7716 109.727 58.1885C109.256 57.6054 108.92 56.7531 108.718 55.6766C108.494 54.6001 108.404 53.232 108.404 51.5724C108.404 49.9127 108.494 48.5447 108.718 47.4681C108.92 46.3916 109.256 45.5618 109.727 44.9787C110.198 44.3956 110.737 43.9694 111.365 43.7452C111.97 43.5209 112.755 43.4088 113.697 43.4088ZM113.697 56.0579C114.011 56.0579 114.235 55.9682 114.392 55.7439C114.527 55.542 114.639 55.1384 114.706 54.5104C114.751 53.9048 114.796 52.918 114.796 51.5724C114.796 50.2267 114.751 49.2623 114.706 48.6344C114.639 48.0288 114.527 47.6251 114.392 47.4009C114.235 47.199 114.011 47.0869 113.697 47.0869C113.383 47.0869 113.136 47.199 113.002 47.4009C112.845 47.6251 112.733 48.0288 112.688 48.6344C112.62 49.2623 112.598 50.2267 112.598 51.5724C112.598 52.918 112.62 53.9048 112.688 54.5104C112.733 55.1384 112.845 55.542 113.002 55.7439C113.136 55.9682 113.383 56.0579 113.697 56.0579ZM124.411 51.6621H124.86C125.443 51.6621 125.824 51.5275 125.981 51.2584C126.138 50.9893 126.228 50.4061 126.228 49.509C126.228 48.6119 126.138 48.0288 125.981 47.7597C125.824 47.4906 125.443 47.356 124.86 47.356H124.411V51.6621ZM123.694 59.5117H121.002C120.509 59.5117 120.285 59.2874 120.285 58.794V44.3507C120.285 43.8797 120.509 43.633 121.002 43.633H124.86C126.923 43.633 128.381 44.0592 129.188 44.8665C129.996 45.6964 130.422 47.2439 130.422 49.509C130.422 51.7518 129.996 53.2993 129.188 54.1067C128.358 54.9365 126.923 55.3402 124.86 55.3402H124.411V58.794C124.411 59.2874 124.165 59.5117 123.694 59.5117ZM136.594 59.736C134.822 59.736 133.544 59.3772 132.737 58.637C131.929 57.9194 131.526 56.7083 131.526 55.0038V44.3507C131.526 43.8797 131.75 43.633 132.243 43.633H134.935C135.406 43.633 135.652 43.8797 135.652 44.3507V54.4207C135.652 55.0038 135.72 55.4075 135.854 55.6318C135.989 55.856 136.235 55.9682 136.594 55.9682C136.953 55.9682 137.2 55.856 137.334 55.6318C137.469 55.4075 137.536 55.0038 137.536 54.4207V44.3507C137.536 43.8797 137.76 43.633 138.254 43.633H140.945C141.416 43.633 141.663 43.8797 141.663 44.3507V55.0038C141.663 56.7083 141.259 57.9194 140.452 58.637C139.644 59.3772 138.344 59.736 136.594 59.736ZM147.158 44.3507V55.699H150.029C150.5 55.699 150.747 55.9457 150.747 56.4167V58.794C150.747 59.2874 150.5 59.5117 150.029 59.5117H143.749C143.256 59.5117 143.032 59.2874 143.032 58.794V44.3507C143.032 43.8797 143.256 43.633 143.749 43.633H146.441C146.912 43.633 147.158 43.8797 147.158 44.3507ZM156.146 53.2769H157.896L157.066 47.6251H156.976L156.146 53.2769ZM154.89 43.633H159.151C159.735 43.633 160.071 43.9022 160.183 44.418L162.605 58.7268C162.65 58.9735 162.605 59.1753 162.493 59.3099C162.381 59.4444 162.202 59.5117 161.977 59.5117H159.219C158.77 59.5117 158.523 59.2874 158.456 58.8165L158.165 56.8653H155.877L155.585 58.8165C155.496 59.2874 155.249 59.5117 154.823 59.5117H152.064C151.818 59.5117 151.638 59.4444 151.526 59.3099C151.414 59.1753 151.392 58.9735 151.436 58.7268L153.859 44.418C153.948 43.9022 154.307 43.633 154.89 43.633ZM167.65 51.3481H168.278C168.861 51.3481 169.242 51.2135 169.421 50.9444C169.601 50.6753 169.69 50.137 169.69 49.352C169.69 48.5895 169.601 48.0513 169.421 47.7821C169.242 47.513 168.861 47.356 168.278 47.356H167.65V51.3481ZM164.241 43.633H168.278C170.341 43.633 171.799 44.0592 172.628 44.8665C173.458 45.6739 173.884 47.1766 173.884 49.352C173.884 51.8191 173.144 53.4114 171.687 54.1291L173.705 58.6146C173.974 59.2202 173.817 59.5117 173.234 59.5117H170.498C170.206 59.5117 170.004 59.4893 169.87 59.3996C169.735 59.3099 169.601 59.1529 169.511 58.8837L167.874 54.8468H167.65V58.794C167.65 59.2874 167.403 59.5117 166.932 59.5117H164.241C163.747 59.5117 163.523 59.2874 163.523 58.794V44.3507C163.523 43.8797 163.747 43.633 164.241 43.633Z" fill="#ED2024"/>
</svg>
