<svg width="110" height="62" viewBox="0 0 110 62" fill="none" xmlns="http://www.w3.org/2000/svg">
<path d="M9.7715 17.1728H3.78895V24.6012C3.78895 24.8754 3.63939 25 3.39011 25H2.16867C1.89447 25 1.76984 24.8754 1.76984 24.6012V7.89988C1.76984 7.6506 1.89447 7.50104 2.16867 7.50104H9.94599C10.1953 7.50104 10.3448 7.62568 10.3448 7.87495V8.94682C10.3448 9.22102 10.1953 9.34566 9.94599 9.34566H3.78895V15.3531H9.7715C10.0208 15.3531 10.1703 15.5027 10.1703 15.752V16.774C10.1703 17.0482 10.0208 17.1728 9.7715 17.1728ZM16.2002 18.5438H21.1358L18.6929 9.66971H18.6431L16.2002 18.5438ZM17.8454 7.50104H19.4906C19.7399 7.50104 19.9144 7.6506 20.0141 7.9248L25.0494 24.5762C25.1242 24.8754 25.0245 25 24.7253 25H23.4042C23.1799 25 23.0303 24.8754 22.9555 24.6261L21.7091 20.3885H15.6269L14.3805 24.6261C14.2808 24.8754 14.1562 25 13.9568 25H12.6107C12.3116 25 12.1869 24.8754 12.2866 24.5762L17.3219 7.9248C17.3967 7.6506 17.5712 7.50104 17.8454 7.50104ZM30.6212 16.8737H33.0641C34.5348 16.8737 35.5568 16.5995 36.1551 16.0511C36.7533 15.5027 37.0525 14.5305 37.0525 13.1595C37.0525 11.7636 36.7533 10.7665 36.1551 10.2181C35.5568 9.66971 34.5099 9.37059 33.0143 9.37059H30.6212V16.8737ZM29.001 7.50104H33.0641C35.1829 7.50104 36.7284 7.94973 37.6757 8.84711C38.6229 9.7445 39.1214 11.1654 39.1214 13.1595C39.1214 16.3253 37.7754 18.1201 35.0832 18.5438L38.9968 24.5015C39.0965 24.651 39.1214 24.7507 39.0716 24.8504C39.0217 24.9501 38.922 25 38.7725 25H37.3516C37.1273 25 36.9528 24.9003 36.8032 24.6759L32.9395 18.7432H30.6212V24.6012C30.6212 24.8754 30.4717 25 30.2224 25H29.001C28.7268 25 28.6021 24.8754 28.6021 24.6012V7.89988C28.6021 7.6506 28.7268 7.50104 29.001 7.50104ZM49.8655 20.0395C49.6661 20.0395 49.5165 19.9647 49.4417 19.7902L45.2539 11.5143V24.6012C45.2539 24.8754 45.1044 25 44.8551 25H43.6586C43.3844 25 43.2598 24.8754 43.2598 24.6012V7.89988C43.2598 7.6506 43.3844 7.50104 43.6586 7.50104H44.88C45.0795 7.50104 45.229 7.60075 45.3287 7.75031L49.8655 16.7241L54.4023 7.75031C54.4521 7.60075 54.6017 7.50104 54.851 7.50104H56.0724C56.3217 7.50104 56.4712 7.6506 56.4712 7.89988V24.6012C56.4712 24.8754 56.3217 25 56.0724 25H54.851C54.6017 25 54.477 24.8754 54.477 24.6012V11.5143L50.2643 19.7902C50.1646 19.9647 50.04 20.0395 49.8655 20.0395ZM63.9463 18.5438H68.8819L66.439 9.66971H66.3892L63.9463 18.5438ZM65.5915 7.50104H67.2367C67.486 7.50104 67.6605 7.6506 67.7602 7.9248L72.7955 24.5762C72.8703 24.8754 72.7706 25 72.4714 25H71.1503C70.9259 25 70.7764 24.8754 70.7016 24.6261L69.4552 20.3885H63.373L62.1266 24.6261C62.0269 24.8754 61.9023 25 61.7028 25H60.3568C60.0576 25 59.933 24.8754 60.0327 24.5762L65.068 7.9248C65.1428 7.6506 65.3173 7.50104 65.5915 7.50104ZM65.8657 5.98047L67.0124 3.91151C67.1121 3.71209 67.2866 3.58745 67.486 3.58745H69.181C69.3057 3.58745 69.3804 3.63731 69.4054 3.73702C69.4303 3.83673 69.4054 3.93644 69.3306 4.01122L67.3115 6.08018C67.137 6.25467 66.9625 6.32946 66.788 6.32946H66.09C65.9903 6.32946 65.9156 6.30453 65.8657 6.22975C65.8158 6.15496 65.8158 6.08018 65.8657 5.98047ZM82.3395 23.3548C83.1123 23.3548 83.9598 23.1803 84.907 22.8064C85.1314 22.7067 85.2809 22.8064 85.3807 23.1055L85.7047 24.0777C85.7546 24.2771 85.6549 24.4267 85.3557 24.5513C84.5082 25 83.4114 25.2243 82.0653 25.2243C79.8219 25.2243 78.1517 24.5015 77.0549 23.0557C75.9581 21.6099 75.4097 19.3415 75.4097 16.2505C75.4097 13.1595 75.9332 10.8912 77.03 9.44537C78.1268 7.99958 79.772 7.25177 81.9656 7.25177C83.2618 7.25177 84.3337 7.47611 85.2062 7.89988C85.4554 8.02451 85.5801 8.17408 85.5302 8.37349L85.256 9.34566C85.1563 9.64479 85.0067 9.71957 84.7575 9.61986C83.9099 9.2958 83.0624 9.12131 82.2398 9.12131C80.5946 9.12131 79.3732 9.69464 78.6254 10.7914C77.8775 11.8882 77.5036 13.7079 77.5036 16.2505C77.5036 18.7931 77.8775 20.6128 78.6503 21.7096C79.3981 22.8064 80.6445 23.3548 82.3395 23.3548ZM89.6948 24.6012V7.89988C89.6948 7.6506 89.8195 7.50104 90.0937 7.50104H91.3151C91.5893 7.50104 91.7389 7.6506 91.7389 7.89988V24.6012C91.7389 24.8754 91.5893 25 91.3151 25H90.0937C89.8195 25 89.6948 24.8754 89.6948 24.6012ZM99.3505 18.5438H104.286L101.843 9.66971H101.793L99.3505 18.5438ZM100.996 7.50104H102.641C102.89 7.50104 103.065 7.6506 103.164 7.9248L108.2 24.5762C108.274 24.8754 108.175 25 107.876 25H106.554C106.33 25 106.181 24.8754 106.106 24.6261L104.859 20.3885H98.7771L97.5308 24.6261C97.4311 24.8754 97.3064 25 97.107 25H95.7609C95.4618 25 95.3372 24.8754 95.4369 24.5762L100.472 7.9248C100.547 7.6506 100.721 7.50104 100.996 7.50104Z" fill="#ED2024"/>
<path d="M7.58984 41.8872H8.21206C9.02095 41.8872 9.54984 41.7005 9.76762 41.3272C9.9854 40.9539 10.1098 40.145 10.1098 38.9005C10.1098 37.6561 9.9854 36.8472 9.76762 36.4738C9.54984 36.1005 9.02095 35.9138 8.21206 35.9138H7.58984V41.8872ZM6.59428 52.7761H2.86093C2.17648 52.7761 1.86537 52.465 1.86537 51.7806V31.7449C1.86537 31.0916 2.17648 30.7494 2.86093 30.7494H8.21206C11.0743 30.7494 13.0965 31.3405 14.2165 32.4605C15.3365 33.6116 15.9276 35.7583 15.9276 38.9005C15.9276 42.0116 15.3365 44.1583 14.2165 45.2783C13.0654 46.4294 11.0743 46.9894 8.21206 46.9894H7.58984V51.7806C7.58984 52.465 7.24761 52.7761 6.59428 52.7761ZM24.6767 30.4382C25.9834 30.4382 27.0412 30.5938 27.9123 30.9049C28.7523 31.216 29.499 31.8071 30.1523 32.616C30.8056 33.4249 31.2723 34.576 31.5834 36.0694C31.8634 37.5627 32.019 39.4605 32.019 41.7627C32.019 44.065 31.8634 45.9628 31.5834 47.4561C31.2723 48.9494 30.8056 50.1317 30.1523 50.9406C29.499 51.7495 28.7523 52.3095 27.9123 52.6206C27.0412 52.9317 25.9834 53.0872 24.6767 53.0872C23.37 53.0872 22.2811 52.9317 21.4411 52.6206C20.57 52.3095 19.8234 51.7495 19.17 50.9406C18.5167 50.1317 18.05 48.9494 17.77 47.4561C17.4589 45.9628 17.3345 44.065 17.3345 41.7627C17.3345 39.4605 17.4589 37.5627 17.77 36.0694C18.05 34.576 18.5167 33.4249 19.17 32.616C19.8234 31.8071 20.57 31.216 21.4411 30.9049C22.2811 30.5938 23.37 30.4382 24.6767 30.4382ZM24.6767 47.985C25.1123 47.985 25.4234 47.8605 25.6412 47.5494C25.8278 47.2694 25.9834 46.7094 26.0767 45.8383C26.1389 44.9983 26.2012 43.6294 26.2012 41.7627C26.2012 39.8961 26.1389 38.5583 26.0767 37.6872C25.9834 36.8472 25.8278 36.2872 25.6412 35.9761C25.4234 35.6961 25.1123 35.5405 24.6767 35.5405C24.2412 35.5405 23.8989 35.6961 23.7123 35.9761C23.4945 36.2872 23.3389 36.8472 23.2767 37.6872C23.1834 38.5583 23.1523 39.8961 23.1523 41.7627C23.1523 43.6294 23.1834 44.9983 23.2767 45.8383C23.3389 46.7094 23.4945 47.2694 23.7123 47.5494C23.8989 47.8605 24.2412 47.985 24.6767 47.985ZM39.5394 41.8872H40.1616C40.9705 41.8872 41.4994 41.7005 41.7172 41.3272C41.9349 40.9539 42.0594 40.145 42.0594 38.9005C42.0594 37.6561 41.9349 36.8472 41.7172 36.4738C41.4994 36.1005 40.9705 35.9138 40.1616 35.9138H39.5394V41.8872ZM38.5438 52.7761H34.8105C34.126 52.7761 33.8149 52.465 33.8149 51.7806V31.7449C33.8149 31.0916 34.126 30.7494 34.8105 30.7494H40.1616C43.0238 30.7494 45.0461 31.3405 46.1661 32.4605C47.2861 33.6116 47.8772 35.7583 47.8772 38.9005C47.8772 42.0116 47.2861 44.1583 46.1661 45.2783C45.015 46.4294 43.0238 46.9894 40.1616 46.9894H39.5394V51.7806C39.5394 52.465 39.1972 52.7761 38.5438 52.7761ZM56.4396 53.0872C53.9818 53.0872 52.2085 52.5895 51.0885 51.5628C49.9685 50.5672 49.4084 48.8872 49.4084 46.5228V31.7449C49.4084 31.0916 49.7196 30.7494 50.404 30.7494H54.1374C54.7907 30.7494 55.1329 31.0916 55.1329 31.7449V45.7139C55.1329 46.5228 55.2263 47.0828 55.4129 47.3939C55.5996 47.705 55.9418 47.8605 56.4396 47.8605C56.9374 47.8605 57.2796 47.705 57.4663 47.3939C57.6529 47.0828 57.7463 46.5228 57.7463 45.7139V31.7449C57.7463 31.0916 58.0574 30.7494 58.7418 30.7494H62.4752C63.1285 30.7494 63.4707 31.0916 63.4707 31.7449V46.5228C63.4707 48.8872 62.9107 50.5672 61.7907 51.5628C60.6707 52.5895 58.8663 53.0872 56.4396 53.0872ZM71.094 31.7449V47.4872H75.0762C75.7295 47.4872 76.0718 47.8294 76.0718 48.4828V51.7806C76.0718 52.465 75.7295 52.7761 75.0762 52.7761H66.365C65.6806 52.7761 65.3695 52.465 65.3695 51.7806V31.7449C65.3695 31.0916 65.6806 30.7494 66.365 30.7494H70.0984C70.7517 30.7494 71.094 31.0916 71.094 31.7449ZM83.5618 44.1272H85.9885L84.8373 36.2872H84.7129L83.5618 44.1272ZM81.8196 30.7494H87.7307C88.5396 30.7494 89.0063 31.1227 89.1618 31.8383L92.5218 51.6872C92.584 52.0295 92.5218 52.3095 92.3663 52.4961C92.2107 52.6828 91.9618 52.7761 91.6507 52.7761H87.824C87.2018 52.7761 86.8596 52.465 86.7662 51.8117L86.3618 49.105H83.1885L82.784 51.8117C82.6596 52.465 82.3173 52.7761 81.7262 52.7761H77.8995C77.5573 52.7761 77.3084 52.6828 77.1529 52.4961C76.9973 52.3095 76.9662 52.0295 77.0284 51.6872L80.3884 31.8383C80.5129 31.1227 81.0107 30.7494 81.8196 30.7494ZM99.5192 41.4516H100.39C101.199 41.4516 101.728 41.265 101.977 40.8916C102.226 40.5183 102.35 39.7716 102.35 38.6827C102.35 37.6249 102.226 36.8783 101.977 36.5049C101.728 36.1316 101.199 35.9138 100.39 35.9138H99.5192V41.4516ZM94.7903 30.7494H100.39C103.253 30.7494 105.275 31.3405 106.426 32.4605C107.577 33.5805 108.168 35.6649 108.168 38.6827C108.168 42.105 107.141 44.3139 105.119 45.3094L107.919 51.5317C108.293 52.3717 108.075 52.7761 107.266 52.7761H103.47C103.066 52.7761 102.786 52.745 102.599 52.6206C102.413 52.4961 102.226 52.2783 102.101 51.905L99.8303 46.305H99.5192V51.7806C99.5192 52.465 99.177 52.7761 98.5236 52.7761H94.7903C94.1058 52.7761 93.7947 52.465 93.7947 51.7806V31.7449C93.7947 31.0916 94.1058 30.7494 94.7903 30.7494Z" fill="#ED2024"/>
</svg>
