<svg width="112" height="40" viewBox="0 0 112 40" fill="none" xmlns="http://www.w3.org/2000/svg">
<path d="M11.8944 25.1055C14.5393 25.1055 16.6472 22.8741 16.6472 19.5707C16.8517 16.9774 14.9169 14.71 12.3236 14.5033C12.182 14.492 12.0382 14.4876 11.8944 14.4898C9.13034 14.4898 7.68315 16.928 7.68315 19.8606C7.6809 23.2067 9.66292 25.1055 11.8944 25.1055ZM23.8315 28.2853C23.8315 37.1235 19.5393 39.9729 10.8629 39.9729C8.06742 39.9797 5.28764 39.5213 2.6427 38.6111L3.01348 32.7437C5.24494 33.9505 7.74831 34.5617 10.2854 34.5213C14.582 34.5213 16.8944 32.4988 16.8944 28.2853V27.1258H16.8112C15.1933 29.5123 12.4629 30.901 9.58202 30.8022C3.67416 30.8022 0 26.3437 0 19.9774C0 13.5729 3.01348 8.78418 9.70562 8.78418C12.7573 8.8089 15.5551 10.4853 17.0157 13.164H17.1011V9.2853H23.8315V28.2831V28.2853Z" fill="#2864AE"/>
<path d="M53.8067 30.7776H62.0786L69.8561 9.39111H62.6314L58.2449 24.6271H58.164L53.8112 9.39111H46.0134L53.8067 30.7776Z" fill="#48AD45"/>
<path d="M41.1819 20.0898C41.1819 16.8898 39.7864 14.0584 36.3797 14.0584C32.973 14.0584 31.5797 16.8898 31.5797 20.0898C31.5797 23.2494 32.9752 26.0809 36.3797 26.0809C39.7842 26.0809 41.1819 23.2494 41.1819 20.0898ZM23.9482 20.0898C23.9482 12.991 29.3213 8.89209 36.3797 8.89209C43.4381 8.89209 48.8112 12.9955 48.8112 20.0898C48.8112 27.1483 43.4381 31.2494 36.3797 31.2494C29.3213 31.2494 23.9482 27.1483 23.9482 20.0898Z" fill="#FABD14"/>
<path d="M70.6922 27.7549C70.6922 29.692 69.1214 31.2606 67.1843 31.2606C65.2473 31.2606 63.6787 29.6898 63.6787 27.7527C63.6787 25.8179 65.2473 24.2493 67.1843 24.2471C69.1192 24.2448 70.6899 25.8134 70.6922 27.7482C70.6922 27.7504 70.6922 27.7527 70.6922 27.7549Z" fill="#2864AE"/>
<path d="M83.263 14.5708C80.5552 14.5708 78.7484 16.9483 78.7484 20.1506C78.7484 23.2697 80.8024 25.6112 83.263 25.6112C86.054 25.6112 87.7372 23.2697 87.7372 19.8629C87.7372 17.0337 86.1372 14.5708 83.263 14.5708ZM71.3619 0H78.7934V12.1506H78.8765C80.654 9.93933 83.3934 8.73034 86.2248 8.91011C92.135 8.91011 95.3732 14.5303 95.3732 19.7034C95.3732 26.0225 91.9687 31.2787 85.6046 31.2787C82.526 31.3978 79.6563 29.7146 78.2585 26.9685H78.1754V30.7888H71.3574V0.00224719H71.3619V0Z" fill="#2864AE"/>
<path d="M110.638 15.3102C109.82 15.1057 108.978 15.0226 108.135 15.0653C104.688 15.0653 102.762 17.5687 102.762 21.7552V30.7866H95.3708V9.39112H102.108V13.3327H102.191C103.124 10.6473 105.67 8.86303 108.51 8.90124C109.351 8.91472 110.187 8.99787 111.014 9.14618L110.638 15.3102Z" fill="#FABD14"/>
</svg>
