<svg width="144" height="50" viewBox="0 0 144 50" fill="none" xmlns="http://www.w3.org/2000/svg">
<path d="M79.4271 22.6241H78.0331L77.4791 21.1821H74.9421L74.4181 22.6241H73.0591L75.5311 16.2781H76.8861L79.4271 22.6241ZM77.0681 20.1131L76.1931 17.7581L75.3361 20.1131H77.0681Z" fill="#1351B4"/>
<mask id="mask0_341_3846" style="mask-type:luminance" maskUnits="userSpaceOnUse" x="0" y="0" width="144" height="50">
<path d="M143.948 0H0V49.65H143.948V0Z" fill="white"/>
</mask>
<g mask="url(#mask0_341_3846)">
<path d="M79.782 20.559L81.029 20.438C81.0694 20.7891 81.231 21.1152 81.486 21.36C81.7493 21.5674 82.0792 21.6719 82.414 21.654C82.746 21.6781 83.0761 21.5855 83.347 21.392C83.4427 21.3206 83.5209 21.2283 83.5753 21.122C83.6297 21.0157 83.6591 20.8984 83.661 20.779C83.6647 20.6395 83.6178 20.5035 83.529 20.396C83.4017 20.2659 83.2429 20.1712 83.068 20.121C82.918 20.069 82.576 19.9766 82.042 19.844C81.5183 19.748 81.0236 19.5332 80.596 19.216C80.4108 19.0591 80.2624 18.8634 80.1615 18.6426C80.0605 18.4219 80.0095 18.1817 80.012 17.939C80.0118 17.6161 80.1075 17.3004 80.287 17.032C80.4798 16.7424 80.756 16.5182 81.079 16.389C81.4762 16.232 81.901 16.1569 82.328 16.168C82.9715 16.1203 83.6106 16.3064 84.128 16.692C84.3279 16.8662 84.4879 17.0814 84.5973 17.323C84.7067 17.5645 84.7629 17.8268 84.762 18.092L83.481 18.148C83.4544 17.8789 83.3285 17.6293 83.128 17.448C82.8889 17.2877 82.6031 17.212 82.316 17.233C82.0073 17.2153 81.701 17.2958 81.441 17.463C81.3774 17.5067 81.3258 17.5657 81.2908 17.6345C81.2559 17.7033 81.2388 17.7798 81.241 17.857C81.2411 17.9316 81.2584 18.0053 81.2915 18.0722C81.3246 18.1392 81.3727 18.1976 81.432 18.243C81.7944 18.4565 82.1936 18.6003 82.609 18.667C83.0863 18.7645 83.5505 18.9179 83.992 19.124C84.2794 19.2716 84.5214 19.4945 84.692 19.769C84.8662 20.0813 84.9535 20.4347 84.9447 20.7923C84.9359 21.1499 84.8313 21.4985 84.642 21.802C84.4375 22.1219 84.1377 22.3695 83.785 22.51C83.3442 22.6766 82.875 22.7551 82.404 22.741C81.7407 22.7854 81.0838 22.5878 80.555 22.185C80.1 21.7633 79.8243 21.183 79.785 20.564" fill="#1351B4"/>
<path d="M85.6958 20.559L86.9428 20.438C86.9832 20.7891 87.1448 21.1152 87.3998 21.36C87.6631 21.5675 87.993 21.672 88.3278 21.654C88.6598 21.6781 88.9899 21.5855 89.2608 21.392C89.3566 21.3206 89.4347 21.2283 89.4891 21.122C89.5436 21.0157 89.5729 20.8984 89.5748 20.779C89.5785 20.6395 89.5316 20.5035 89.4428 20.396C89.3155 20.2659 89.1567 20.1712 88.9818 20.121C88.8318 20.069 88.4898 19.9766 87.9558 19.844C87.4321 19.7481 86.9374 19.5332 86.5098 19.216C86.3246 19.0591 86.1762 18.8634 86.0753 18.6426C85.9743 18.4219 85.9233 18.1817 85.9258 17.939C85.9256 17.6161 86.0213 17.3004 86.2008 17.032C86.3936 16.7424 86.6698 16.5182 86.9928 16.389C87.39 16.232 87.8148 16.1569 88.2418 16.168C88.8853 16.1203 89.5244 16.3064 90.0418 16.692C90.2417 16.8662 90.4017 17.0814 90.5111 17.323C90.6205 17.5645 90.6767 17.8268 90.6758 18.092L89.3948 18.148C89.3682 17.8789 89.2424 17.6293 89.0418 17.448C88.8027 17.2876 88.5169 17.212 88.2298 17.233C87.9212 17.2154 87.6149 17.2959 87.3548 17.463C87.2912 17.5067 87.2396 17.5657 87.2046 17.6345C87.1697 17.7033 87.1526 17.7798 87.1548 17.857C87.1549 17.9316 87.1722 18.0053 87.2053 18.0722C87.2384 18.1392 87.2865 18.1976 87.3458 18.243C87.7082 18.4565 88.1074 18.6003 88.5228 18.667C89.0001 18.7645 89.4643 18.9179 89.9058 19.124C90.1932 19.2716 90.4352 19.4945 90.6058 19.769C90.7837 20.0754 90.8717 20.4258 90.8598 20.78C90.8611 21.1425 90.7569 21.4976 90.5598 21.802C90.3553 22.1219 90.0556 22.3695 89.7028 22.51C89.262 22.6766 88.7928 22.7551 88.3218 22.741C87.6585 22.7854 87.0016 22.5878 86.4728 22.185C86.0178 21.7633 85.7421 21.183 85.7028 20.564" fill="#1351B4"/>
<path d="M93.177 16.2781H91.895V22.6241H93.177V16.2781Z" fill="#1351B4"/>
<path d="M94.0718 20.559L95.3188 20.438C95.3592 20.7891 95.5208 21.1152 95.7758 21.36C96.0391 21.5675 96.369 21.672 96.7038 21.654C97.0358 21.6781 97.3659 21.5855 97.6368 21.392C97.7325 21.3206 97.8107 21.2283 97.8651 21.122C97.9195 21.0157 97.9489 20.8984 97.9508 20.779C97.9545 20.6395 97.9076 20.5035 97.8188 20.396C97.6915 20.2659 97.5327 20.1712 97.3578 20.121C97.2078 20.069 96.8658 19.9766 96.3318 19.844C95.8081 19.748 95.3134 19.5332 94.8858 19.216C94.7005 19.0592 94.5521 18.8634 94.4512 18.6427C94.3502 18.422 94.2992 18.1817 94.3018 17.939C94.3016 17.6161 94.3973 17.3004 94.5768 17.032C94.7696 16.7424 95.0458 16.5182 95.3688 16.389C95.766 16.232 96.1908 16.1569 96.6178 16.168C97.2613 16.1203 97.9004 16.3064 98.4178 16.692C98.6177 16.8662 98.7777 17.0814 98.8871 17.323C98.9965 17.5645 99.0527 17.8268 99.0518 18.092L97.7708 18.148C97.7442 17.8789 97.6183 17.6293 97.4178 17.448C97.1787 17.2876 96.8929 17.212 96.6058 17.233C96.2971 17.2153 95.9908 17.2958 95.7308 17.463C95.6672 17.5067 95.6156 17.5657 95.5806 17.6345C95.5457 17.7033 95.5285 17.7798 95.5308 17.857C95.5309 17.9316 95.5482 18.0053 95.5813 18.0722C95.6144 18.1392 95.6625 18.1976 95.7218 18.243C96.0842 18.4565 96.4834 18.6003 96.8988 18.667C97.3761 18.7645 97.8403 18.9179 98.2818 19.124C98.5692 19.2716 98.8112 19.4945 98.9818 19.769C99.156 20.0813 99.2432 20.4347 99.2345 20.7923C99.2257 21.1499 99.1211 21.4985 98.9318 21.802C98.7273 22.1219 98.4275 22.3695 98.0748 22.51C97.634 22.6766 97.1648 22.7551 96.6938 22.741C96.0305 22.7854 95.3736 22.5878 94.8448 22.185C94.3898 21.7633 94.1141 21.183 94.0748 20.564" fill="#1351B4"/>
<path d="M101.739 22.6241V17.3511H99.856V16.2781H104.9V17.3511H103.021V22.6241H101.739Z" fill="#1351B4"/>
<path d="M105.728 22.624V16.278H110.428V17.352H107.008V18.759H110.194V19.828H107.008V21.556H110.554V22.625L105.728 22.624ZM106.542 15.914L107.451 14.637H108.577L109.477 15.914H108.499L107.999 15.269L107.532 15.914H106.542Z" fill="#1351B4"/>
<path d="M111.652 22.6241V16.2781H112.899L115.499 20.5161V16.2781H116.689V22.6241H115.403L112.845 18.4851V22.6241H111.652Z" fill="#1351B4"/>
<path d="M122.103 20.2941L123.346 20.6881C123.21 21.2939 122.876 21.8369 122.396 22.2311C121.823 22.614 121.136 22.7875 120.45 22.7221C119.764 22.6566 119.122 22.3564 118.632 21.8721C118.062 21.2216 117.77 20.3736 117.818 19.5101C117.762 18.6148 118.055 17.7327 118.636 17.0491C118.911 16.7575 119.245 16.5283 119.616 16.377C119.987 16.2257 120.386 16.1558 120.787 16.1721C121.484 16.1425 122.164 16.3898 122.679 16.8601C122.997 17.1836 123.222 17.5877 123.328 18.0291L122.059 18.3291C122 18.0209 121.833 17.7439 121.588 17.5484C121.343 17.353 121.035 17.2521 120.722 17.2641C120.505 17.2571 120.29 17.2989 120.092 17.3865C119.893 17.4741 119.717 17.6052 119.577 17.7701C119.242 18.2484 119.087 18.8295 119.138 19.4111C119.083 20.015 119.235 20.6197 119.571 21.1251C119.707 21.2904 119.879 21.4224 120.075 21.511C120.27 21.5995 120.483 21.6423 120.697 21.6361C121.02 21.6425 121.334 21.5268 121.576 21.3121C121.854 21.0346 122.038 20.6774 122.104 20.2901" fill="#1351B4"/>
<path d="M125.688 16.2781H124.406V22.6241H125.688V16.2781Z" fill="#1351B4"/>
<path d="M132.631 22.6241H131.237L130.683 21.1821H128.146L127.622 22.6241H126.263L128.735 16.2781H130.09L132.631 22.6241ZM130.272 20.1131L129.397 17.7591L128.54 20.1141L130.272 20.1131Z" fill="#1351B4"/>
<path d="M73.7119 33.732V27.386H78.0629V28.459H74.9939V29.959H77.6429V31.033H74.9939V33.733L73.7119 33.732Z" fill="#1351B4"/>
<path d="M84.3529 33.732H82.9589L82.4049 32.29H79.8649L79.3409 33.732H77.9849L80.4569 27.386H81.8119L84.3529 33.732ZM81.9939 31.221L81.1189 28.866L80.2619 31.221H81.9939Z" fill="#1351B4"/>
<path d="M85.0369 33.7329V27.3859H87.7369C88.2355 27.3626 88.7347 27.4204 89.2149 27.5569C89.5222 27.6709 89.7821 27.8851 89.9529 28.1649C90.1399 28.4645 90.2361 28.8118 90.2299 29.1649C90.2451 29.5973 90.0949 30.0193 89.8099 30.3449C89.474 30.6825 89.0293 30.8901 88.5549 30.9309C88.8081 31.0745 89.0392 31.254 89.2409 31.4639C89.5135 31.7852 89.7575 32.1299 89.9699 32.4939L90.7449 33.7319H89.2089L88.2829 32.3509C88.0777 32.0257 87.8519 31.7141 87.6069 31.4179C87.5015 31.3004 87.3694 31.2099 87.2219 31.1539C87.0118 31.0972 86.7942 31.0733 86.5769 31.0829H86.3169V33.7329H85.0369ZM86.3189 30.0699H87.2669C87.6523 30.0893 88.0386 30.0631 88.4179 29.9919C88.5645 29.9454 88.6913 29.8511 88.7779 29.7239C88.8686 29.5821 88.914 29.4161 88.9079 29.2479C88.9166 29.0604 88.8557 28.8762 88.7369 28.7309C88.6106 28.593 88.4394 28.5047 88.2539 28.4819C88.1499 28.4679 87.8382 28.4605 87.3189 28.4599H86.3189V30.0699Z" fill="#1351B4"/>
<path d="M91.4189 33.732V27.386H93.3369L94.4889 31.715L95.6269 27.386H97.5489V33.732H96.3589V28.732L95.0989 33.732H93.8649L92.6099 28.732V33.732H91.4189Z" fill="#1351B4"/>
<path d="M104.544 33.732H103.15L102.596 32.29H100.059L99.5348 33.732H98.1758L100.648 27.386H102.003L104.544 33.732ZM102.185 31.221L101.31 28.866L100.453 31.221H102.185Z" fill="#1351B4"/>
<path d="M109.285 31.399L110.528 31.793C110.392 32.3989 110.058 32.9419 109.578 33.336C109.005 33.719 108.318 33.8924 107.632 33.827C106.946 33.7616 106.304 33.4614 105.814 32.977C105.244 32.3265 104.952 31.4785 105 30.615C104.944 29.7198 105.237 28.8377 105.818 28.154C106.093 27.8624 106.427 27.6332 106.798 27.4819C107.169 27.3307 107.568 27.2608 107.969 27.277C108.666 27.2475 109.346 27.4948 109.861 27.965C110.179 28.2887 110.403 28.6928 110.51 29.134L109.241 29.434C109.182 29.1258 109.015 28.8489 108.77 28.6534C108.525 28.458 108.217 28.3571 107.904 28.369C107.687 28.3621 107.472 28.4039 107.274 28.4915C107.076 28.5791 106.9 28.7102 106.759 28.875C106.424 29.3534 106.269 29.9344 106.32 30.516C106.265 31.12 106.418 31.7247 106.753 32.23C106.889 32.3954 107.062 32.5274 107.257 32.616C107.452 32.7045 107.665 32.7473 107.879 32.741C108.202 32.7475 108.516 32.6318 108.758 32.417C109.036 32.1396 109.221 31.7824 109.286 31.395" fill="#1351B4"/>
<path d="M111.627 33.7319V27.3859H116.333V28.4589H112.909V29.8689H116.095V30.9379H112.909V32.6659H116.455V33.7349L111.627 33.7319ZM112.441 27.0219L113.35 25.7449H114.476L115.376 27.0219H114.398L113.898 26.3769L113.431 27.0219H112.441Z" fill="#1351B4"/>
<path d="M117.532 27.386H118.814V30.823C118.803 31.177 118.819 31.5313 118.861 31.883C118.91 32.1329 119.049 32.3559 119.253 32.509C119.501 32.6788 119.799 32.7617 120.099 32.745C120.39 32.766 120.68 32.6874 120.921 32.522C121.097 32.388 121.216 32.1927 121.254 31.975C121.3 31.6176 121.319 31.2572 121.31 30.897V27.386H122.592V30.72C122.61 31.2603 122.576 31.801 122.492 32.335C122.433 32.6296 122.302 32.9047 122.109 33.135C121.905 33.3642 121.649 33.5414 121.362 33.652C120.971 33.794 120.557 33.8595 120.141 33.845C119.672 33.8679 119.203 33.7965 118.762 33.635C118.475 33.5144 118.22 33.3272 118.019 33.089C117.848 32.8859 117.725 32.6465 117.66 32.389C117.562 31.8578 117.52 31.3179 117.535 30.778L117.532 27.386Z" fill="#1351B4"/>
<path d="M125.372 33.732V28.459H123.489V27.386H128.532V28.459H126.653V33.732H125.372Z" fill="#1351B4"/>
<path d="M130.602 27.386H129.32V33.732H130.602V27.386Z" fill="#1351B4"/>
<path d="M135.883 31.3991L137.125 31.793C136.989 32.3989 136.655 32.942 136.175 33.3361C135.602 33.719 134.915 33.8925 134.229 33.8271C133.543 33.7616 132.901 33.4614 132.411 32.9771C131.841 32.3265 131.549 31.4785 131.597 30.6151C131.541 29.7198 131.835 28.8378 132.415 28.1541C132.69 27.8625 133.024 27.6333 133.395 27.482C133.766 27.3307 134.166 27.2608 134.566 27.2771C135.263 27.2474 135.943 27.4947 136.458 27.9651C136.776 28.2886 137.001 28.6927 137.107 29.1341L135.838 29.434C135.78 29.1259 135.613 28.8489 135.367 28.6534C135.122 28.458 134.814 28.3571 134.501 28.3691C134.284 28.3621 134.069 28.4039 133.871 28.4915C133.673 28.5791 133.497 28.7102 133.356 28.8751C133.022 29.3535 132.866 29.9345 132.917 30.5161C132.862 31.1201 133.014 31.7248 133.35 32.2301C133.486 32.3954 133.659 32.5274 133.854 32.616C134.049 32.7045 134.262 32.7473 134.476 32.7411C134.799 32.7474 135.113 32.6317 135.355 32.417C135.633 32.1395 135.817 31.7823 135.883 31.3951" fill="#1351B4"/>
<path d="M143.948 33.732H142.554L142 32.29H139.463L138.939 33.732H137.58L140.052 27.386H141.407L143.948 33.732ZM141.589 31.221L140.714 28.866L139.857 31.221H141.589Z" fill="#1351B4"/>
<path d="M65.5198 13.197H64.6328V36.569H65.5198V13.197Z" fill="#1351B4"/>
<path d="M13.2788 23.7789C13.7638 23.7789 14.2478 23.7789 14.7318 23.7789V23.7839C15.2652 23.8084 15.7995 23.8004 16.3318 23.7599C16.4384 23.7192 16.5328 23.6519 16.606 23.5643C16.6791 23.4768 16.7287 23.372 16.7498 23.2599C16.6897 22.7754 16.4598 22.3279 16.101 21.9969C15.7422 21.6659 15.2776 21.4728 14.7898 21.4519C14.3162 21.4752 13.8643 21.6582 13.5079 21.9711C13.1515 22.2839 12.9114 22.7082 12.8268 23.1749C12.7648 23.5559 12.8628 23.7749 13.2748 23.7809" fill="#1351B4"/>
<path d="M29.637 42.802H31.211L30.424 40.51L29.637 42.802Z" fill="#1351B4"/>
<path d="M53.6999 13.678H42.9379V2.91698C42.9376 2.14369 42.6303 1.40214 42.0835 0.855346C41.5367 0.308547 40.7952 0.00124161 40.0219 0.000976562L23.5599 0.000976563C22.7864 0.00124172 22.0447 0.308685 21.4979 0.8557C20.9511 1.40271 20.6439 2.14451 20.6439 2.91798V11.864C18.4504 10.807 16.0245 10.3239 13.5934 10.46C11.1623 10.596 8.80549 11.3468 6.74364 12.642C4.68178 13.9372 2.98233 15.7345 1.80438 17.8655C0.626442 19.9965 0.00854492 22.3916 0.00854492 24.8265C0.00854492 27.2614 0.626442 29.6565 1.80438 31.7875C2.98233 33.9185 4.68178 35.7157 6.74364 37.0109C8.80549 38.3061 11.1623 39.0569 13.5934 39.193C16.0245 39.3291 18.4504 38.846 20.6439 37.789V46.735C20.6439 47.5084 20.9511 48.2502 21.4979 48.7973C22.0447 49.3443 22.7864 49.6517 23.5599 49.652H40.0219C40.405 49.652 40.7843 49.5765 41.1382 49.4299C41.4921 49.2833 41.8137 49.0685 42.0845 48.7976C42.3554 48.5267 42.5703 48.2052 42.7169 47.8513C42.8634 47.4974 42.9389 47.118 42.9389 46.735V35.973H53.6999C54.4734 35.9727 55.2151 35.6653 55.7619 35.1183C56.3087 34.5712 56.6159 33.8294 56.6159 33.056V16.594C56.6159 15.8206 56.3087 15.0789 55.7618 14.5321C55.215 13.9852 54.4733 13.678 53.6999 13.678ZM19.3819 31.987C17.2981 32.6553 15.077 32.7738 12.9339 32.331C11.3381 32.0406 9.89591 31.1963 8.86158 29.9469C7.82725 28.6974 7.26712 27.123 7.2799 25.501C7.1109 22.401 8.1999 19.801 11.0329 18.308C12.3086 17.5695 13.7718 17.2184 15.2438 17.2976C16.7157 17.3768 18.1328 17.8829 19.3219 18.754C20.1212 19.3449 20.7708 20.115 21.2185 21.0024C21.6662 21.8899 21.8996 22.87 21.8999 23.864C22.0729 26.793 22.3089 26.159 19.7559 26.225C17.7559 26.277 15.7629 26.266 13.7669 26.293C12.7989 26.306 12.6199 26.558 12.9769 27.468C13.2646 28.2591 13.7896 28.942 14.4802 29.4233C15.1707 29.9046 15.9931 30.1609 16.8349 30.157C19.0351 30.3091 21.2076 29.5945 22.8879 28.166C23.9375 27.2267 24.6653 25.9813 24.9684 24.6058C25.2715 23.2303 25.1346 21.7944 24.5769 20.501C24.0848 19.0619 23.2404 17.7689 22.1206 16.7398C21.0008 15.7106 19.6413 14.9781 18.1659 14.609C14.0889 13.47 10.2659 14.031 7.0459 16.952C5.42443 18.486 4.30878 20.4777 3.84751 22.6616C3.38624 24.8456 3.60125 27.1183 4.4639 29.177C5.25619 31.0795 6.58785 32.7087 8.29474 33.8637C10.0016 35.0187 12.0092 35.649 14.0699 35.677C16.4109 35.7765 18.7344 35.2325 20.7879 34.104C20.919 34.0383 21.0555 33.9841 21.1959 33.942C21.287 33.9311 21.3792 33.9508 21.4579 33.998C21.5366 34.0453 21.5974 34.1173 21.6307 34.2028C21.664 34.2883 21.6679 34.3825 21.6419 34.4705C21.6159 34.5585 21.5614 34.6353 21.4869 34.689H21.4799C19.9172 35.6824 18.1428 36.2945 16.2999 36.476C11.8049 36.916 7.9249 35.72 5.0509 32.055C3.4119 29.971 2.7079 27.545 2.7259 23.701C2.7259 18.557 7.3549 13.615 13.7069 13.232C18.0879 12.968 21.8229 14.308 24.3739 18.032C27.4839 22.572 26.5279 29.89 19.3819 31.987ZM32.0549 45.268L31.6089 43.975H29.2409L28.7999 45.268H27.1329L29.4959 38.868H31.3959L33.7599 45.268H32.0549ZM31.7319 29.547C30.9912 29.5485 30.2529 29.4636 29.5319 29.294C28.9135 29.1631 28.3203 28.9334 27.7749 28.614L28.7599 26.384C29.2169 26.6439 29.7047 26.8455 30.2119 26.984C30.7133 27.1302 31.2326 27.2066 31.7549 27.211C32.0623 27.2287 32.3703 27.187 32.6619 27.088C32.7399 27.0619 32.808 27.0123 32.8569 26.9461C32.9057 26.8799 32.933 26.8002 32.9349 26.718C32.9349 26.528 32.8159 26.3853 32.5779 26.29C32.1957 26.1556 31.8035 26.0517 31.4049 25.979C30.8111 25.8615 30.2261 25.7035 29.6539 25.506C29.1845 25.3357 28.7654 25.0503 28.4349 24.676C28.0707 24.2396 27.8853 23.6815 27.9159 23.114C27.9115 22.5582 28.0792 22.0147 28.3959 21.558C28.7568 21.0602 29.2547 20.678 29.8289 20.458C30.566 20.1724 31.3527 20.0364 32.1429 20.058C32.7601 20.0569 33.3755 20.124 33.9779 20.258C34.5335 20.3751 35.0686 20.5739 35.5659 20.848L34.6449 23.065C33.8669 22.6447 33.0008 22.4138 32.1169 22.391C31.3302 22.391 30.9369 22.5813 30.9369 22.962C30.9369 23.143 31.0539 23.28 31.2869 23.37C31.6631 23.4982 32.049 23.5958 32.4409 23.662C33.0351 23.7665 33.6205 23.9163 34.1919 24.11C34.6662 24.2778 35.0916 24.5606 35.4299 24.933C35.7984 25.3649 35.9865 25.9221 35.9549 26.489C35.96 27.0427 35.7922 27.5842 35.4749 28.038C35.1117 28.5336 34.6146 28.9153 34.0419 29.138C33.306 29.4286 32.5188 29.5674 31.7279 29.546M39.2589 40.107H36.3199V41.301H39.0489V42.538H36.3199V45.271H34.6779V38.871H39.2629L39.2589 40.107ZM45.6269 25.255C45.6616 25.8344 45.5758 26.4147 45.3749 26.9592C45.174 27.5038 44.8625 28.0009 44.4599 28.419C44.0183 28.8121 43.5035 29.1141 42.9449 29.3076C42.3863 29.5012 41.795 29.5826 41.2049 29.547C40.615 29.5824 40.0238 29.501 39.4654 29.3074C38.907 29.1139 38.3923 28.8119 37.9509 28.419C37.5483 28.0009 37.2367 27.5038 37.0359 26.9592C36.835 26.4147 36.7492 25.8344 36.7839 25.255V20.264H39.8439V25.164C39.802 25.6739 39.9273 26.1836 40.2009 26.616C40.332 26.7586 40.4913 26.8724 40.6687 26.9502C40.8461 27.0281 41.0377 27.0683 41.2314 27.0683C41.4251 27.0683 41.6167 27.0281 41.7941 26.9502C41.9715 26.8724 42.1308 26.7586 42.2619 26.616C42.5348 26.1834 42.6598 25.6738 42.6179 25.164V20.264H45.6259L45.6269 25.255ZM54.1589 28.036C53.7955 28.5314 53.2984 28.913 52.7259 29.136C51.99 29.4266 51.2028 29.5653 50.4119 29.544C49.6712 29.5454 48.9329 29.4605 48.2119 29.291C47.5936 29.1599 47.0004 28.9303 46.4549 28.611L47.4399 26.381C47.8969 26.6409 48.3847 26.8425 48.8919 26.981C49.3933 27.1272 49.9126 27.2036 50.4349 27.208C50.7423 27.2257 51.0503 27.1839 51.3419 27.085C51.4197 27.0587 51.4876 27.0091 51.5363 26.9429C51.5849 26.8767 51.612 26.7971 51.6139 26.715C51.6139 26.525 51.4952 26.3823 51.2579 26.287C50.8756 26.1528 50.4834 26.0488 50.0849 25.976C49.4911 25.8586 48.906 25.7006 48.3339 25.503C47.8644 25.3329 47.4452 25.0475 47.1149 24.673C46.7507 24.2366 46.5653 23.6785 46.5959 23.111C46.5913 22.5552 46.759 22.0116 47.0759 21.555C47.4368 21.0571 47.9347 20.6749 48.5089 20.455C49.246 20.1694 50.0327 20.0334 50.8229 20.055C51.4401 20.0539 52.0555 20.121 52.6579 20.255C53.2135 20.3721 53.7486 20.5709 54.2459 20.845L53.3249 23.062C52.5469 22.6418 51.6808 22.4109 50.7969 22.388C50.0102 22.388 49.6169 22.5783 49.6169 22.959C49.6169 23.14 49.7339 23.277 49.9669 23.367C50.3431 23.4952 50.729 23.5929 51.1209 23.659C51.7148 23.7635 52.2998 23.9133 52.8709 24.107C53.3455 24.2747 53.7712 24.5575 54.1099 24.93C54.4783 25.362 54.6662 25.9191 54.6349 26.486C54.6398 27.0397 54.472 27.5811 54.1549 28.035" fill="#1351B4"/>
</g>
</svg>
