<svg width="80" height="80" viewBox="0 0 80 80" fill="none" xmlns="http://www.w3.org/2000/svg">
<g clip-path="url(#clip0_143_1320)">
<path d="M25.75 29.2031C25.75 27.2622 27.3457 25.6875 29.3125 25.6875C31.2793 25.6875 32.875 27.2622 32.875 29.2031V37.4062H25.75V29.2031ZM34.0625 47.9531C34.0625 44.3862 35.4059 41.127 37.625 38.6514V29.2031C37.625 24.6694 33.9066 21 29.3125 21C24.7184 21 21 24.6694 21 29.2031V50.2969C21 54.8306 24.7184 58.5 29.3125 58.5C32.0809 58.5 34.5301 57.167 36.0441 55.1089C34.7824 53.0142 34.0625 50.5679 34.0625 47.9531ZM38.8645 52.8896C39.2059 53.5269 40.0742 53.6001 40.5938 53.0874L53.5152 40.3359C54.0348 39.8232 53.9605 38.9663 53.3148 38.6294C51.823 37.8457 50.1234 37.4062 48.3125 37.4062C42.4121 37.4062 37.625 42.1304 37.625 47.9531C37.625 49.7329 38.0703 51.4175 38.8645 52.8896ZM43.1098 55.5703C42.5902 56.083 42.6645 56.9399 43.3102 57.2769C44.802 58.0605 46.5016 58.5 48.3125 58.5C54.2129 58.5 59 53.7759 59 47.9531C59 46.1733 58.5547 44.4888 57.7605 43.0166C57.4191 42.3794 56.5508 42.3062 56.0312 42.8188L43.1098 55.5703Z" fill="#FC906D"/>
</g>
<defs>
<clipPath id="clip0_143_1320">
<rect width="38" height="50" fill="white" transform="translate(21 15)"/>
</clipPath>
</defs>
</svg>
