<svg width="80" height="80" viewBox="0 0 80 80" fill="none" xmlns="http://www.w3.org/2000/svg">
<g clip-path="url(#clip0_143_1335)">
<path d="M35.0391 20.625C36.2702 20.625 37.4893 20.8675 38.6267 21.3386C39.7641 21.8098 40.7976 22.5003 41.6682 23.3709C42.5387 24.2414 43.2293 25.2749 43.7004 26.4123C44.1716 27.5498 44.4141 28.7689 44.4141 30C44.4141 31.2311 44.1716 32.4502 43.7004 33.5877C43.2293 34.7251 42.5387 35.7586 41.6682 36.6291C40.7976 37.4997 39.7641 38.1902 38.6267 38.6614C37.4893 39.1325 36.2702 39.375 35.0391 39.375C33.8079 39.375 32.5888 39.1325 31.4514 38.6614C30.314 38.1902 29.2805 37.4997 28.4099 36.6291C27.5394 35.7586 26.8488 34.7251 26.3777 33.5877C25.9066 32.4502 25.6641 31.2311 25.6641 30C25.6641 28.7689 25.9066 27.5498 26.3777 26.4123C26.8488 25.2749 27.5394 24.2414 28.4099 23.3709C29.2805 22.5003 30.314 21.8098 31.4514 21.3386C32.5888 20.8675 33.8079 20.625 35.0391 20.625ZM32.7109 43.75H37.4688C36.4609 45.8438 36.8594 48.2969 38.3672 49.9609C36.7891 51.7031 36.4297 54.3203 37.6328 56.4766L39.3906 59.6328C39.4609 59.7578 39.5391 59.8828 39.6172 60H21.1016C19.8203 60 18.7812 58.9609 18.7812 57.6797C18.7812 49.9844 25.0156 43.75 32.7109 43.75ZM48.7969 39.3438C48.7969 38.3047 49.6328 37.4688 50.6719 37.4688H54.4219C55.4609 37.4688 56.2969 38.3047 56.2969 39.3438V39.8203C56.2969 41.2969 58.1797 42.3828 59.4609 41.6484L59.8516 41.4219C60.7578 40.8984 61.9219 41.2188 62.4297 42.1328L64.1797 45.2734C64.6641 46.1484 64.3828 47.2422 63.5391 47.7734L63.1719 48C61.9062 48.7891 61.9062 51.1172 63.1719 51.9141L63.5312 52.1406C64.375 52.6719 64.6641 53.7656 64.1797 54.6406L62.4219 57.7969C61.9141 58.7109 60.75 59.0391 59.8438 58.5078L59.4609 58.2812C58.1797 57.5391 56.2969 58.6328 56.2969 60.1094V60.5859C56.2969 61.625 55.4609 62.4609 54.4219 62.4609H50.6719C49.6328 62.4609 48.7969 61.625 48.7969 60.5859V60.125C48.7969 58.6406 46.9062 57.5469 45.6172 58.2891L45.2422 58.5078C44.3359 59.0312 43.1797 58.7109 42.6641 57.7969L40.8984 54.6406C40.4141 53.7656 40.6953 52.6641 41.5469 52.1328L41.8906 51.9219C43.1641 51.1328 43.1641 48.7891 41.8906 48L41.5391 47.7812C40.6875 47.25 40.4062 46.1484 40.8906 45.2734L42.6484 42.125C43.1562 41.2109 44.3203 40.8906 45.2188 41.4141L45.5938 41.6328C46.8828 42.375 48.7734 41.2812 48.7734 39.7969V39.3359L48.7969 39.3438ZM56.6016 49.9844C56.6016 48.9069 56.1735 47.8736 55.4117 47.1118C54.6498 46.3499 53.6165 45.9219 52.5391 45.9219C51.4616 45.9219 50.4283 46.3499 49.6664 47.1118C48.9046 47.8736 48.4766 48.9069 48.4766 49.9844C48.4766 51.0618 48.9046 52.0951 49.6664 52.857C50.4283 53.6189 51.4616 54.0469 52.5391 54.0469C53.6165 54.0469 54.6498 53.6189 55.4117 52.857C56.1735 52.0951 56.6016 51.0618 56.6016 49.9844Z" fill="#2378C3"/>
</g>
<defs>
<clipPath id="clip0_143_1335">
<rect width="50" height="40" fill="white" transform="translate(15 20)"/>
</clipPath>
</defs>
</svg>
