<svg width="80" height="80" viewBox="0 0 80 80" fill="none" xmlns="http://www.w3.org/2000/svg">
<path d="M40 20C42.3704 20 44.6437 20.9446 46.3198 22.6259C47.9959 24.3073 48.9375 26.5877 48.9375 28.9655C48.9375 31.3433 47.9959 33.6237 46.3198 35.3051C44.6437 36.9865 42.3704 37.931 40 37.931C37.6296 37.931 35.3563 36.9865 33.6802 35.3051C32.0041 33.6237 31.0625 31.3433 31.0625 28.9655C31.0625 26.5877 32.0041 24.3073 33.6802 22.6259C35.3563 20.9446 37.6296 20 40 20ZM20.75 26.2069C21.5626 26.2069 22.3672 26.3674 23.1179 26.6794C23.8686 26.9913 24.5507 27.4485 25.1252 28.0249C25.6998 28.6012 26.1556 29.2855 26.4665 30.0385C26.7775 30.7916 26.9375 31.5987 26.9375 32.4138C26.9375 33.2289 26.7775 34.036 26.4665 34.7891C26.1556 35.5421 25.6998 36.2264 25.1252 36.8027C24.5507 37.3791 23.8686 37.8363 23.1179 38.1482C22.3672 38.4601 21.5626 38.6207 20.75 38.6207C19.9374 38.6207 19.1328 38.4601 18.3821 38.1482C17.6314 37.8363 16.9493 37.3791 16.3748 36.8027C15.8002 36.2264 15.3444 35.5421 15.0335 34.7891C14.7225 34.036 14.5625 33.2289 14.5625 32.4138C14.5625 31.5987 14.7225 30.7916 15.0335 30.0385C15.3444 29.2855 15.8002 28.6012 16.3748 28.0249C16.9493 27.4485 17.6314 26.9913 18.3821 26.6794C19.1328 26.3674 19.9374 26.2069 20.75 26.2069ZM12.5 54.4828C12.5 48.3879 17.4242 43.4483 23.5 43.4483C24.6 43.4483 25.6656 43.6121 26.6711 43.9138C23.8437 47.0862 22.125 51.2759 22.125 55.8621V57.2414C22.125 58.2241 22.3313 59.1552 22.7008 60H15.25C13.7289 60 12.5 58.7672 12.5 57.2414V54.4828ZM57.2992 60C57.6688 59.1552 57.875 58.2241 57.875 57.2414V55.8621C57.875 51.2759 56.1562 47.0862 53.3289 43.9138C54.3344 43.6121 55.4 43.4483 56.5 43.4483C62.5758 43.4483 67.5 48.3879 67.5 54.4828V57.2414C67.5 58.7672 66.2711 60 64.75 60H57.2992ZM53.0625 32.4138C53.0625 30.7676 53.7144 29.1889 54.8748 28.0249C56.0352 26.8608 57.609 26.2069 59.25 26.2069C60.891 26.2069 62.4648 26.8608 63.6252 28.0249C64.7856 29.1889 65.4375 30.7676 65.4375 32.4138C65.4375 34.06 64.7856 35.6387 63.6252 36.8027C62.4648 37.9668 60.891 38.6207 59.25 38.6207C57.609 38.6207 56.0352 37.9668 54.8748 36.8027C53.7144 35.6387 53.0625 34.06 53.0625 32.4138ZM26.25 55.8621C26.25 48.2414 32.4031 42.069 40 42.069C47.5969 42.069 53.75 48.2414 53.75 55.8621V57.2414C53.75 58.7672 52.5211 60 51 60H29C27.4789 60 26.25 58.7672 26.25 57.2414V55.8621Z" fill="#21C834"/>
</svg>
